# xmcd
#
# Track frame offsets:
#	150
#	21059
#	40929
#	58185
#	77857
#	108682
#	123910
#
# Disc length: 1909 seconds
#
# Revision: 1
# Processed by: cddbd v1.4b41PL3 Copyright (c) Steve Scherf et al.
# Submitted via: audiograbber 1.80
#
DISCID=59077307
DTITLE=House of Blues - Free Music from the
DYEAR=1900
DGENRE=
TTITLE0=Allison, Luther - You Can't Always Get What You Want
TTITLE1=Clay, Otis - Piece of My Heart
TTITLE2=Blind Boys of Alabama - Sombody's Gone
TTITLE3=Houston, Cissy - Tne Lord Will Make a Way Somehow
TTITLE4=Allison, Luther - Gamblers Blues
TTITLE5=Blues Brothers and Friends - All My Money Back
TTITLE6=Mahal, Taj - Big Legged Mamas Are Back in Style Again
EXTD=
EXTT0=
EXTT1=
EXTT2=
EXTT3=
EXTT4=
EXTT5=
EXTT6=
PLAYORDER=
